<svg data-v-2cb57da0="" version="1.0" xmlns="http://www.w3.org/2000/svg" xmlns:xlink="http://www.w3.org/1999/xlink" width="100%" height="100%" viewBox="0 0 340.000000 250.000000" preserveAspectRatio="xMidYMid meet" color-interpolation-filters="sRGB" style="margin: auto;"><rect data-v-2cb57da0="" x="0" y="0" width="100%" height="100%" fill="#653BB7" fill-opacity="0" class="background"></rect> <rect data-v-2cb57da0="" x="0" y="0" width="100%" height="100%" fill="url(#watermark)" fill-opacity="1" class="watermarklayer"></rect> <g data-v-2cb57da0="" fill="#653BB7" class="basesvg" transform="translate(79.42320251464844,102.86909675598145)"><g fill-rule="" class="tp-name" opacity="0.8453150028946173" transform="matrix(1,0,0,1,0,0)"><g transform="scale(1.1800000000000002)"><g><g mask="url(#TbBhERdm0aK-isbNDe1uu)"><g stroke="#653BB7" stroke-width="12" stroke-linecap="round" stroke-linejoin="round" paint-order="stroke" data-gra-attr="stroke"><path d="M15.64-35.31L15.64-35.31 15.75-35.31Q18.76-35.31 20.76-32.56L20.76-32.56Q21.49-31.2 21.49-30.81L21.49-30.81Q21.51-30.81 21.51-30.74L21.51-30.74Q21.53-30.74 21.77-30.76L21.77-30.76Q30.37-30.98 31.03-30.98L31.03-30.98Q33.18-30.98 35.05-29.11L35.05-29.11Q36.08-27.95 36.41-26.37L36.41-26.37 36.52-25.62Q36.54-14.3 36.54-6.75L36.54-6.75 36.54-1.6Q36.54 0.37 34.72 1.63L34.72 1.63Q33.84 2.2 32.76 2.2L32.76 2.2 7.05 2.2Q5.08 2.2 3.85 0.37L3.85 0.37Q3.23-0.42 3.23-2.31L3.23-2.31 2.99-26.81Q2.99-27.77 3.89-29L3.89-29Q4.88-29.99 5.6-30.15L5.6-30.15Q5.73-30.37 8.46-30.43L8.46-30.43Q9.16-30.43 9.82-30.45L9.82-30.45Q10.17-32.08 11.12-33.18L11.12-33.18Q13.03-35.31 15.64-35.31ZM12.3-22.48L12.3-22.48 12.44-16.3Q20.39-15.49 20.9-15.4L20.9-15.4Q21.84-15.03 22.32-14.19L22.32-14.19Q22.57-13.69 22.57-13.21L22.57-13.21 22.57-13.01Q22.57-12.3 22.26-11.32L22.26-11.32Q21.45-9.91 20.06-9.91L20.06-9.91Q19.91-9.91 12.57-10.83L12.57-10.83Q12.7-5.45 12.7-4.72L12.7-4.72 25.25-4.94Q25.91-4.94 26.43-5.71L26.43-5.71Q26.59-6.09 26.59-6.22L26.59-6.22 26.37-21.05Q26.37-22.19 25.38-22.59L25.38-22.59Q25.22-22.63 25.03-22.65L25.03-22.65Q13.27-22.52 12.3-22.48ZM55.2-35.31L55.2-35.31 55.31-35.31Q58.32-35.31 60.31-32.56L60.31-32.56Q61.04-31.2 61.04-30.81L61.04-30.81Q61.06-30.81 61.06-30.74L61.06-30.74Q61.08-30.74 61.33-30.76L61.33-30.76Q69.92-30.98 70.58-30.98L70.58-30.98Q72.73-30.98 74.6-29.11L74.6-29.11Q75.63-27.95 75.96-26.37L75.96-26.37 76.07-25.62Q76.09-14.3 76.09-6.75L76.09-6.75 76.09-1.6Q76.09 0.37 74.27 1.63L74.27 1.63Q73.39 2.2 72.31 2.2L72.31 2.2 46.6 2.2Q44.63 2.2 43.4 0.37L43.4 0.37Q42.78-0.42 42.78-2.31L42.78-2.31 42.54-26.81Q42.54-27.77 43.44-29L43.44-29Q44.43-29.99 45.15-30.15L45.15-30.15Q45.29-30.37 48.01-30.43L48.01-30.43Q48.71-30.43 49.37-30.45L49.37-30.45Q49.72-32.08 50.67-33.18L50.67-33.18Q52.58-35.31 55.2-35.31ZM51.86-22.48L51.86-22.48 51.99-16.3Q59.94-15.49 60.45-15.4L60.45-15.4Q61.39-15.03 61.88-14.19L61.88-14.19Q62.12-13.69 62.12-13.21L62.12-13.21 62.12-13.01Q62.12-12.3 61.81-11.32L61.81-11.32Q61-9.91 59.61-9.91L59.61-9.91Q59.46-9.91 52.12-10.83L52.12-10.83Q52.25-5.45 52.25-4.72L52.25-4.72 64.8-4.94Q65.46-4.94 65.98-5.71L65.98-5.71Q66.14-6.09 66.14-6.22L66.14-6.22 65.92-21.05Q65.92-22.19 64.93-22.59L64.93-22.59Q64.78-22.63 64.58-22.65L64.58-22.65Q52.82-22.52 51.86-22.48ZM103.78-34.3L103.78-34.3Q105.45-34.3 106.57-32.56L106.57-32.56Q106.98-31.79 106.98-31.14L106.98-31.14Q106.98-29.53 106.83-21.51L106.83-21.51 115.6-21.51Q117.2-21.51 117.93-19.84L117.93-19.84Q118.04-19.45 118.04-19.01L118.04-19.01 118.04-18.02Q118.04-16.33 116.32-15.64L116.32-15.64Q115.97-15.53 115.42-15.53L115.42-15.53 106.77-15.53Q106.59-5.3 106.59-4.33L106.59-4.33Q106.59-4 107.09-3.63L107.09-3.63Q107.38-3.52 107.51-3.52L107.51-3.52 108.17-3.6 108.24-3.6Q108.98-3.6 109.16-2.64L109.16-2.64Q108.98 0.24 108.79 0.24L108.79 0.24Q108.79 0.57 107.91 1.27L107.91 1.27Q107.45 1.58 106.02 1.74L106.02 1.74Q103.03 2.2 102.61 2.2L102.61 2.2 102.5 2.2Q100.92 2.2 99.76 0.55L99.76 0.55Q99.29-0.29 99.29-0.99L99.29-0.99Q99.34-5.23 99.51-15.6L99.51-15.6Q98.83-15.6 97.91-16.39L97.91-16.39Q97.1-17.29 97.1-18.37L97.1-18.37Q97.1-20.68 99.18-21.42L99.18-21.42 99.58-21.49Q99.73-29.71 99.73-30.87L99.73-30.87Q99.73-32.63 101.27-33.73L101.27-33.73Q102-34.3 103.78-34.3ZM114.5-33.35L114.5-33.35Q115.91-33.35 116.89-32.08L116.89-32.08Q117.88-30.43 117.88-29.77L117.88-29.77 117.88-29.42Q117.88-28.15 116.7-27.18L116.7-27.18Q112.52-24.96 111.86-24.72L111.86-24.72Q111.38-24.63 111.07-24.63L111.07-24.63Q109.58-24.63 108.63-26.02L108.63-26.02Q107.78-27.47 107.78-28.26L107.78-28.26 107.78-28.52Q107.78-29.93 109.18-30.89L109.18-30.89Q112.96-32.92 113.55-33.18L113.55-33.18Q113.84-33.31 114.5-33.35ZM83.06-33.27L83.06-33.27Q93.52-33.18 93.52-33.09L93.52-33.09Q94.64-32.85 95.43-32.1L95.43-32.1Q96.61-30.87 96.61-29.51L96.61-29.51Q96.35-14.37 96.31-12.74L96.31-12.74Q96.13-11.91 95.54-11.36L95.54-11.36Q94.81-10.74 93.96-10.74L93.96-10.74 93.27-10.74Q91.76-10.74 91.03-12.3L91.03-12.3Q90.9-12.72 90.9-13.12L90.9-13.12 90.9-25.64Q90.9-26.94 89.6-27.18L89.6-27.18 85.94-27.18 85.94-13.78Q85.94-11.82 83.98-10.99L83.98-10.99Q83.5-10.83 82.86-10.83L82.86-10.83 82.57-10.83Q80.22-10.83 79.52-13.01L79.52-13.01Q79.45-13.32 79.45-13.67L79.45-13.67 79.45-29.51Q79.45-31.73 81.72-32.98L81.72-32.98Q82.55-33.27 83.06-33.27ZM88.22-23.75L88.22-23.75 88.66-23.75Q89.36-23.75 89.52-23.14L89.52-23.14 89.52-7.01Q89.52-5.82 88.55-4.48L88.55-4.48Q85.96-0.13 85.76 0.13L85.76 0.13Q84.81 1.25 83.47 1.25L83.47 1.25Q82.68 1.25 81.19 0.46L81.19 0.46Q79.74-0.46 79.74-2.09L79.74-2.09Q79.74-3.21 80.84-4.35L80.84-4.35Q80.9-4.48 82.24-6.17L82.24-6.17Q86.53-11.58 86.88-12.06L86.88-12.06Q87.39-12.96 87.39-14.02L87.39-14.02 87.39-23.01Q87.39-23.55 87.93-23.73L87.93-23.73Q88.11-23.75 88.22-23.75ZM111.2-14.48L111.2-14.48Q112.65-14.48 113.47-12.94L113.47-12.94Q113.47-12.85 118.08-3.27L118.08-3.27Q118.28-2.79 118.28-2.37L118.28-2.37 118.28-2.31Q118.28-1.16 117.29-0.37L117.29-0.37Q115.71 0.46 115.11 0.46L115.11 0.46 114.79 0.46Q113.93 0.46 113.09-0.37L113.09-0.37Q112.76-0.77 111.86-3.16L111.86-3.16Q108.7-10.74 108.48-11.4L108.48-11.4Q108.41-11.71 108.41-11.91L108.41-11.91 108.41-11.98Q108.41-13.32 109.82-14.13L109.82-14.13Q110.68-14.48 111.2-14.48ZM93.47-6.81L93.47-6.81Q94.66-6.81 95.63-5.82L95.63-5.82Q96.31-4.94 96.66-3.69L96.66-3.69Q96.75-3.38 96.75-3.12L96.75-3.12Q96.75-1.21 94.59-0.26L94.59-0.26Q94.02 0.09 93.25 0.09L93.25 0.09Q91.76 0.09 90.81-1.25L90.81-1.25Q90.04-2.81 90.04-3.69L90.04-3.69Q90.04-5.91 92.75-6.75L92.75-6.75Q93.27-6.81 93.47-6.81ZM137.75-35.11L137.75-35.11 139.72-35.11Q141.64-35.11 142.95-33.13L142.95-33.13Q143.37-32.28 143.37-31.4L143.37-31.4 143.37-30.32 152.49-30.56Q154.07-30.56 155.41-28.98L155.41-28.98Q156.14-28.02 156.14-26.41L156.14-26.41Q156.14-23.58 153.68-22.48L153.68-22.48Q153.17-22.19 150.27-22.19L150.27-22.19Q150.03-22.17 143.26-21.97L143.26-21.97Q143.06-9.4 143.06-8.66L143.06-8.66Q143.04-8.2 143.04-8.04L143.04-8.04Q146.95-8 146.95-7.87L146.95-7.87Q147.81-7.56 148.34-6.75L148.34-6.75Q148.6-6.11 148.6-5.71L148.6-5.71Q148.6-3.8 148.25-3.41L148.25-3.41Q147.85-2.68 146.8-2.33L146.8-2.33Q146.58-2.24 146.34-2.24L146.34-2.24Q145.59-2.24 142.95-2.31L142.95-2.31 142.95-1.96Q142.95 0.53 140.67 1.69L140.67 1.69Q140.23 1.98 137.46 2.2L137.46 2.2 137.4 2.2Q135.44 2.2 134.14 0.33L134.14 0.33Q133.62-0.62 133.62-1.65L133.62-1.65Q133.64-1.98 133.64-2.48L133.64-2.48Q130.45-2.53 130.45-2.64L130.45-2.64Q129.68-2.86 129.16-3.49L129.16-3.49Q128.39-4.28 128.39-5.27L128.39-5.27 128.39-5.6Q128.39-6.99 129.73-7.93L129.73-7.93Q130.5-8.39 131.15-8.39L131.15-8.39Q133.04-8.35 133.7-8.35L133.7-8.35 133.7-8.37Q133.9-20.02 133.9-21.51L133.9-21.51 133.92-21.71Q133.42-21.71 124.21-21.45L124.21-21.45Q122.54-21.45 121.29-22.92L121.29-22.92Q120.5-23.91 120.5-25.38L120.5-25.38 120.5-25.8Q120.5-28.45 123.05-29.55L123.05-29.55Q123.55-29.79 126.06-29.79L126.06-29.79Q126.36-29.84 134.06-30.04L134.06-30.04Q134.06-32.3 134.36-32.78L134.36-32.78Q134.98-34.15 136.34-34.8L136.34-34.8Q137.09-35.11 137.75-35.11ZM127.11-18.87L127.11-18.87Q128.98-18.87 130.41-17.14L130.41-17.14Q131-16.06 131-15.12L131-15.12 131-14.77Q131-13.51 129.77-12.02L129.77-12.02Q129.55-11.67 127.46-8.7L127.46-8.7Q126.25-7.29 124.41-7.29L124.41-7.29Q122.89-7.29 121.35-8.68L121.35-8.68Q120.32-9.89 120.32-11.32L120.32-11.32 120.32-11.4Q120.32-12.77 121.31-13.95L121.31-13.95 124.23-17.64Q125.44-18.87 127.11-18.87ZM149.52-18.87L149.52-18.87 149.83-18.87Q151.72-18.87 153.11-16.9L153.11-16.9Q155.85-13.51 156.12-13.01L156.12-13.01Q156.51-12.08 156.51-11.29L156.51-11.29Q156.51-8.94 153.94-7.49L153.94-7.49Q153.13-7.12 152.36-7.12L152.36-7.12Q149.99-7.12 148.67-9.49L148.67-9.49Q148.51-9.69 146.95-11.98L146.95-11.98Q145.68-13.6 145.68-14.79L145.68-14.79 145.68-14.92Q145.68-16.46 146.76-17.64L146.76-17.64Q148.14-18.87 149.52-18.87Z" transform="translate(-2.990000009536743, 35.310001373291016)"></path></g><g stroke="black" stroke-width="10" stroke-linecap="round" stroke-linejoin="round" paint-order="stroke" data-gra-ignore-stroke="true"><path d="M15.64-35.31L15.64-35.31 15.75-35.31Q18.76-35.31 20.76-32.56L20.76-32.56Q21.49-31.2 21.49-30.81L21.49-30.81Q21.51-30.81 21.51-30.74L21.51-30.74Q21.53-30.74 21.77-30.76L21.77-30.76Q30.37-30.98 31.03-30.98L31.03-30.98Q33.18-30.98 35.05-29.11L35.05-29.11Q36.08-27.95 36.41-26.37L36.41-26.37 36.52-25.62Q36.54-14.3 36.54-6.75L36.54-6.75 36.54-1.6Q36.54 0.37 34.72 1.63L34.72 1.63Q33.84 2.2 32.76 2.2L32.76 2.2 7.05 2.2Q5.08 2.2 3.85 0.37L3.85 0.37Q3.23-0.42 3.23-2.31L3.23-2.31 2.99-26.81Q2.99-27.77 3.89-29L3.89-29Q4.88-29.99 5.6-30.15L5.6-30.15Q5.73-30.37 8.46-30.43L8.46-30.43Q9.16-30.43 9.82-30.45L9.82-30.45Q10.17-32.08 11.12-33.18L11.12-33.18Q13.03-35.31 15.64-35.31ZM12.3-22.48L12.3-22.48 12.44-16.3Q20.39-15.49 20.9-15.4L20.9-15.4Q21.84-15.03 22.32-14.19L22.32-14.19Q22.57-13.69 22.57-13.21L22.57-13.21 22.57-13.01Q22.57-12.3 22.26-11.32L22.26-11.32Q21.45-9.91 20.06-9.91L20.06-9.91Q19.91-9.91 12.57-10.83L12.57-10.83Q12.7-5.45 12.7-4.72L12.7-4.72 25.25-4.94Q25.91-4.94 26.43-5.71L26.43-5.71Q26.59-6.09 26.59-6.22L26.59-6.22 26.37-21.05Q26.37-22.19 25.38-22.59L25.38-22.59Q25.22-22.63 25.03-22.65L25.03-22.65Q13.27-22.52 12.3-22.48ZM55.2-35.31L55.2-35.31 55.31-35.31Q58.32-35.31 60.31-32.56L60.31-32.56Q61.04-31.2 61.04-30.81L61.04-30.81Q61.06-30.81 61.06-30.74L61.06-30.74Q61.08-30.74 61.33-30.76L61.33-30.76Q69.92-30.98 70.58-30.98L70.58-30.98Q72.73-30.98 74.6-29.11L74.6-29.11Q75.63-27.95 75.96-26.37L75.96-26.37 76.07-25.62Q76.09-14.3 76.09-6.75L76.09-6.75 76.09-1.6Q76.09 0.37 74.27 1.63L74.27 1.63Q73.39 2.2 72.31 2.2L72.31 2.2 46.6 2.2Q44.63 2.2 43.4 0.37L43.4 0.37Q42.78-0.42 42.78-2.31L42.78-2.31 42.54-26.81Q42.54-27.77 43.44-29L43.44-29Q44.43-29.99 45.15-30.15L45.15-30.15Q45.29-30.37 48.01-30.43L48.01-30.43Q48.71-30.43 49.37-30.45L49.37-30.45Q49.72-32.08 50.67-33.18L50.67-33.18Q52.58-35.31 55.2-35.31ZM51.86-22.48L51.86-22.48 51.99-16.3Q59.94-15.49 60.45-15.4L60.45-15.4Q61.39-15.03 61.88-14.19L61.88-14.19Q62.12-13.69 62.12-13.21L62.12-13.21 62.12-13.01Q62.12-12.3 61.81-11.32L61.81-11.32Q61-9.91 59.61-9.91L59.61-9.91Q59.46-9.91 52.12-10.83L52.12-10.83Q52.25-5.45 52.25-4.72L52.25-4.72 64.8-4.94Q65.46-4.94 65.98-5.71L65.98-5.71Q66.14-6.09 66.14-6.22L66.14-6.22 65.92-21.05Q65.92-22.19 64.93-22.59L64.93-22.59Q64.78-22.63 64.58-22.65L64.58-22.65Q52.82-22.52 51.86-22.48ZM103.78-34.3L103.78-34.3Q105.45-34.3 106.57-32.56L106.57-32.56Q106.98-31.79 106.98-31.14L106.98-31.14Q106.98-29.53 106.83-21.51L106.83-21.51 115.6-21.51Q117.2-21.51 117.93-19.84L117.93-19.84Q118.04-19.45 118.04-19.01L118.04-19.01 118.04-18.02Q118.04-16.33 116.32-15.64L116.32-15.64Q115.97-15.53 115.42-15.53L115.42-15.53 106.77-15.53Q106.59-5.3 106.59-4.33L106.59-4.33Q106.59-4 107.09-3.63L107.09-3.63Q107.38-3.52 107.51-3.52L107.51-3.52 108.17-3.6 108.24-3.6Q108.98-3.6 109.16-2.64L109.16-2.64Q108.98 0.24 108.79 0.24L108.79 0.24Q108.79 0.57 107.91 1.27L107.91 1.27Q107.45 1.58 106.02 1.74L106.02 1.74Q103.03 2.2 102.61 2.2L102.61 2.2 102.5 2.2Q100.92 2.2 99.76 0.55L99.76 0.55Q99.29-0.29 99.29-0.99L99.29-0.99Q99.34-5.23 99.51-15.6L99.51-15.6Q98.83-15.6 97.91-16.39L97.91-16.39Q97.1-17.29 97.1-18.37L97.1-18.37Q97.1-20.68 99.18-21.42L99.18-21.42 99.58-21.49Q99.73-29.71 99.73-30.87L99.73-30.87Q99.73-32.63 101.27-33.73L101.27-33.73Q102-34.3 103.78-34.3ZM114.5-33.35L114.5-33.35Q115.91-33.35 116.89-32.08L116.89-32.08Q117.88-30.43 117.88-29.77L117.88-29.77 117.88-29.42Q117.88-28.15 116.7-27.18L116.7-27.18Q112.52-24.96 111.86-24.72L111.86-24.72Q111.38-24.63 111.07-24.63L111.07-24.63Q109.58-24.63 108.63-26.02L108.63-26.02Q107.78-27.47 107.78-28.26L107.78-28.26 107.78-28.52Q107.78-29.93 109.18-30.89L109.18-30.89Q112.96-32.92 113.55-33.18L113.55-33.18Q113.84-33.31 114.5-33.35ZM83.06-33.27L83.06-33.27Q93.52-33.18 93.52-33.09L93.52-33.09Q94.64-32.85 95.43-32.1L95.43-32.1Q96.61-30.87 96.61-29.51L96.61-29.51Q96.35-14.37 96.31-12.74L96.31-12.74Q96.13-11.91 95.54-11.36L95.54-11.36Q94.81-10.74 93.96-10.74L93.96-10.74 93.27-10.74Q91.76-10.74 91.03-12.3L91.03-12.3Q90.9-12.72 90.9-13.12L90.9-13.12 90.9-25.64Q90.9-26.94 89.6-27.18L89.6-27.18 85.94-27.18 85.94-13.78Q85.94-11.82 83.98-10.99L83.98-10.99Q83.5-10.83 82.86-10.83L82.86-10.83 82.57-10.83Q80.22-10.83 79.52-13.01L79.52-13.01Q79.45-13.32 79.45-13.67L79.45-13.67 79.45-29.51Q79.45-31.73 81.72-32.98L81.72-32.98Q82.55-33.27 83.06-33.27ZM88.22-23.75L88.22-23.75 88.66-23.75Q89.36-23.75 89.52-23.14L89.52-23.14 89.52-7.01Q89.52-5.82 88.55-4.48L88.55-4.48Q85.96-0.13 85.76 0.13L85.76 0.13Q84.81 1.25 83.47 1.25L83.47 1.25Q82.68 1.25 81.19 0.46L81.19 0.46Q79.74-0.46 79.74-2.09L79.74-2.09Q79.74-3.21 80.84-4.35L80.84-4.35Q80.9-4.48 82.24-6.17L82.24-6.17Q86.53-11.58 86.88-12.06L86.88-12.06Q87.39-12.96 87.39-14.02L87.39-14.02 87.39-23.01Q87.39-23.55 87.93-23.73L87.93-23.73Q88.11-23.75 88.22-23.75ZM111.2-14.48L111.2-14.48Q112.65-14.48 113.47-12.94L113.47-12.94Q113.47-12.85 118.08-3.27L118.08-3.27Q118.28-2.79 118.28-2.37L118.28-2.37 118.28-2.31Q118.28-1.16 117.29-0.37L117.29-0.37Q115.71 0.46 115.11 0.46L115.11 0.46 114.79 0.46Q113.93 0.46 113.09-0.37L113.09-0.37Q112.76-0.77 111.86-3.16L111.86-3.16Q108.7-10.74 108.48-11.4L108.48-11.4Q108.41-11.71 108.41-11.91L108.41-11.91 108.41-11.98Q108.41-13.32 109.82-14.13L109.82-14.13Q110.68-14.48 111.2-14.48ZM93.47-6.81L93.47-6.81Q94.66-6.81 95.63-5.82L95.63-5.82Q96.31-4.94 96.66-3.69L96.66-3.69Q96.75-3.38 96.75-3.12L96.75-3.12Q96.75-1.21 94.59-0.26L94.59-0.26Q94.02 0.09 93.25 0.09L93.25 0.09Q91.76 0.09 90.81-1.25L90.81-1.25Q90.04-2.81 90.04-3.69L90.04-3.69Q90.04-5.91 92.75-6.75L92.75-6.75Q93.27-6.81 93.47-6.81ZM137.75-35.11L137.75-35.11 139.72-35.11Q141.64-35.11 142.95-33.13L142.95-33.13Q143.37-32.28 143.37-31.4L143.37-31.4 143.37-30.32 152.49-30.56Q154.07-30.56 155.41-28.98L155.41-28.98Q156.14-28.02 156.14-26.41L156.14-26.41Q156.14-23.58 153.68-22.48L153.68-22.48Q153.17-22.19 150.27-22.19L150.27-22.19Q150.03-22.17 143.26-21.97L143.26-21.97Q143.06-9.4 143.06-8.66L143.06-8.66Q143.04-8.2 143.04-8.04L143.04-8.04Q146.95-8 146.95-7.87L146.95-7.87Q147.81-7.56 148.34-6.75L148.34-6.75Q148.6-6.11 148.6-5.71L148.6-5.71Q148.6-3.8 148.25-3.41L148.25-3.41Q147.85-2.68 146.8-2.33L146.8-2.33Q146.58-2.24 146.34-2.24L146.34-2.24Q145.59-2.24 142.95-2.31L142.95-2.31 142.95-1.96Q142.95 0.53 140.67 1.69L140.67 1.69Q140.23 1.98 137.46 2.2L137.46 2.2 137.4 2.2Q135.44 2.2 134.14 0.33L134.14 0.33Q133.62-0.62 133.62-1.65L133.62-1.65Q133.64-1.98 133.64-2.48L133.64-2.48Q130.45-2.53 130.45-2.64L130.45-2.64Q129.68-2.86 129.16-3.49L129.16-3.49Q128.39-4.28 128.39-5.27L128.39-5.27 128.39-5.6Q128.39-6.99 129.73-7.93L129.73-7.93Q130.5-8.39 131.15-8.39L131.15-8.39Q133.04-8.35 133.7-8.35L133.7-8.35 133.7-8.37Q133.9-20.02 133.9-21.51L133.9-21.51 133.92-21.71Q133.42-21.71 124.21-21.45L124.21-21.45Q122.54-21.45 121.29-22.92L121.29-22.92Q120.5-23.91 120.5-25.38L120.5-25.38 120.5-25.8Q120.5-28.45 123.05-29.55L123.05-29.55Q123.55-29.79 126.06-29.79L126.06-29.79Q126.36-29.84 134.06-30.04L134.06-30.04Q134.06-32.3 134.36-32.78L134.36-32.78Q134.98-34.15 136.34-34.8L136.34-34.8Q137.09-35.11 137.75-35.11ZM127.11-18.87L127.11-18.87Q128.98-18.87 130.41-17.14L130.41-17.14Q131-16.06 131-15.12L131-15.12 131-14.77Q131-13.51 129.77-12.02L129.77-12.02Q129.55-11.67 127.46-8.7L127.46-8.7Q126.25-7.29 124.41-7.29L124.41-7.29Q122.89-7.29 121.35-8.68L121.35-8.68Q120.32-9.89 120.32-11.32L120.32-11.32 120.32-11.4Q120.32-12.77 121.31-13.95L121.31-13.95 124.23-17.64Q125.44-18.87 127.11-18.87ZM149.52-18.87L149.52-18.87 149.83-18.87Q151.72-18.87 153.11-16.9L153.11-16.9Q155.85-13.51 156.12-13.01L156.12-13.01Q156.51-12.08 156.51-11.29L156.51-11.29Q156.51-8.94 153.94-7.49L153.94-7.49Q153.13-7.12 152.36-7.12L152.36-7.12Q149.99-7.12 148.67-9.49L148.67-9.49Q148.51-9.69 146.95-11.98L146.95-11.98Q145.68-13.6 145.68-14.79L145.68-14.79 145.68-14.92Q145.68-16.46 146.76-17.64L146.76-17.64Q148.14-18.87 149.52-18.87Z" transform="translate(-2.990000009536743, 35.310001373291016)"></path></g><g><path d="M15.64-35.31L15.64-35.31 15.75-35.31Q18.76-35.31 20.76-32.56L20.76-32.56Q21.49-31.2 21.49-30.81L21.49-30.81Q21.51-30.81 21.51-30.74L21.51-30.74Q21.53-30.74 21.77-30.76L21.77-30.76Q30.37-30.98 31.03-30.98L31.03-30.98Q33.18-30.98 35.05-29.11L35.05-29.11Q36.08-27.95 36.41-26.37L36.41-26.37 36.52-25.62Q36.54-14.3 36.54-6.75L36.54-6.75 36.54-1.6Q36.54 0.37 34.72 1.63L34.72 1.63Q33.84 2.2 32.76 2.2L32.76 2.2 7.05 2.2Q5.08 2.2 3.85 0.37L3.85 0.37Q3.23-0.42 3.23-2.31L3.23-2.31 2.99-26.81Q2.99-27.77 3.89-29L3.89-29Q4.88-29.99 5.6-30.15L5.6-30.15Q5.73-30.37 8.46-30.43L8.46-30.43Q9.16-30.43 9.82-30.45L9.82-30.45Q10.17-32.08 11.12-33.18L11.12-33.18Q13.03-35.31 15.64-35.31ZM12.3-22.48L12.3-22.48 12.44-16.3Q20.39-15.49 20.9-15.4L20.9-15.4Q21.84-15.03 22.32-14.19L22.32-14.19Q22.57-13.69 22.57-13.21L22.57-13.21 22.57-13.01Q22.57-12.3 22.26-11.32L22.26-11.32Q21.45-9.91 20.06-9.91L20.06-9.91Q19.91-9.91 12.57-10.83L12.57-10.83Q12.7-5.45 12.7-4.72L12.7-4.72 25.25-4.94Q25.91-4.94 26.43-5.71L26.43-5.71Q26.59-6.09 26.59-6.22L26.59-6.22 26.37-21.05Q26.37-22.19 25.38-22.59L25.38-22.59Q25.22-22.63 25.03-22.65L25.03-22.65Q13.27-22.52 12.3-22.48ZM55.2-35.31L55.2-35.31 55.31-35.31Q58.32-35.31 60.31-32.56L60.31-32.56Q61.04-31.2 61.04-30.81L61.04-30.81Q61.06-30.81 61.06-30.74L61.06-30.74Q61.08-30.74 61.33-30.76L61.33-30.76Q69.92-30.98 70.58-30.98L70.58-30.98Q72.73-30.98 74.6-29.11L74.6-29.11Q75.63-27.95 75.96-26.37L75.96-26.37 76.07-25.62Q76.09-14.3 76.09-6.75L76.09-6.75 76.09-1.6Q76.09 0.37 74.27 1.63L74.27 1.63Q73.39 2.2 72.31 2.2L72.31 2.2 46.6 2.2Q44.63 2.2 43.4 0.37L43.4 0.37Q42.78-0.42 42.78-2.31L42.78-2.31 42.54-26.81Q42.54-27.77 43.44-29L43.44-29Q44.43-29.99 45.15-30.15L45.15-30.15Q45.29-30.37 48.01-30.43L48.01-30.43Q48.71-30.43 49.37-30.45L49.37-30.45Q49.72-32.08 50.67-33.18L50.67-33.18Q52.58-35.31 55.2-35.31ZM51.86-22.48L51.86-22.48 51.99-16.3Q59.94-15.49 60.45-15.4L60.45-15.4Q61.39-15.03 61.88-14.19L61.88-14.19Q62.12-13.69 62.12-13.21L62.12-13.21 62.12-13.01Q62.12-12.3 61.81-11.32L61.81-11.32Q61-9.91 59.61-9.91L59.61-9.91Q59.46-9.91 52.12-10.83L52.12-10.83Q52.25-5.45 52.25-4.72L52.25-4.72 64.8-4.94Q65.46-4.94 65.98-5.71L65.98-5.71Q66.14-6.09 66.14-6.22L66.14-6.22 65.92-21.05Q65.92-22.19 64.93-22.59L64.93-22.59Q64.78-22.63 64.58-22.65L64.58-22.65Q52.82-22.52 51.86-22.48ZM103.78-34.3L103.78-34.3Q105.45-34.3 106.57-32.56L106.57-32.56Q106.98-31.79 106.98-31.14L106.98-31.14Q106.98-29.53 106.83-21.51L106.83-21.51 115.6-21.51Q117.2-21.51 117.93-19.84L117.93-19.84Q118.04-19.45 118.04-19.01L118.04-19.01 118.04-18.02Q118.04-16.33 116.32-15.64L116.32-15.64Q115.97-15.53 115.42-15.53L115.42-15.53 106.77-15.53Q106.59-5.3 106.59-4.33L106.59-4.33Q106.59-4 107.09-3.63L107.09-3.63Q107.38-3.52 107.51-3.52L107.51-3.52 108.17-3.6 108.24-3.6Q108.98-3.6 109.16-2.64L109.16-2.64Q108.98 0.24 108.79 0.24L108.79 0.24Q108.79 0.57 107.91 1.27L107.91 1.27Q107.45 1.58 106.02 1.74L106.02 1.74Q103.03 2.2 102.61 2.2L102.61 2.2 102.5 2.2Q100.92 2.2 99.76 0.55L99.76 0.55Q99.29-0.29 99.29-0.99L99.29-0.99Q99.34-5.23 99.51-15.6L99.51-15.6Q98.83-15.6 97.91-16.39L97.91-16.39Q97.1-17.29 97.1-18.37L97.1-18.37Q97.1-20.68 99.18-21.42L99.18-21.42 99.58-21.49Q99.73-29.71 99.73-30.87L99.73-30.87Q99.73-32.63 101.27-33.73L101.27-33.73Q102-34.3 103.78-34.3ZM114.5-33.35L114.5-33.35Q115.91-33.35 116.89-32.08L116.89-32.08Q117.88-30.43 117.88-29.77L117.88-29.77 117.88-29.42Q117.88-28.15 116.7-27.18L116.7-27.18Q112.52-24.96 111.86-24.72L111.86-24.72Q111.38-24.63 111.07-24.63L111.07-24.63Q109.58-24.63 108.63-26.02L108.63-26.02Q107.78-27.47 107.78-28.26L107.78-28.26 107.78-28.52Q107.78-29.93 109.18-30.89L109.18-30.89Q112.96-32.92 113.55-33.18L113.55-33.18Q113.84-33.31 114.5-33.35ZM83.06-33.27L83.06-33.27Q93.52-33.18 93.52-33.09L93.52-33.09Q94.64-32.85 95.43-32.1L95.43-32.1Q96.61-30.87 96.61-29.51L96.61-29.51Q96.35-14.37 96.31-12.74L96.31-12.74Q96.13-11.91 95.54-11.36L95.54-11.36Q94.81-10.74 93.96-10.74L93.96-10.74 93.27-10.74Q91.76-10.74 91.03-12.3L91.03-12.3Q90.9-12.72 90.9-13.12L90.9-13.12 90.9-25.64Q90.9-26.94 89.6-27.18L89.6-27.18 85.94-27.18 85.94-13.78Q85.94-11.82 83.98-10.99L83.98-10.99Q83.5-10.83 82.86-10.83L82.86-10.83 82.57-10.83Q80.22-10.83 79.52-13.01L79.52-13.01Q79.45-13.32 79.45-13.67L79.45-13.67 79.45-29.51Q79.45-31.73 81.72-32.98L81.72-32.98Q82.55-33.27 83.06-33.27ZM88.22-23.75L88.22-23.75 88.66-23.75Q89.36-23.75 89.52-23.14L89.52-23.14 89.52-7.01Q89.52-5.82 88.55-4.48L88.55-4.48Q85.96-0.13 85.76 0.13L85.76 0.13Q84.81 1.25 83.47 1.25L83.47 1.25Q82.68 1.25 81.19 0.46L81.19 0.46Q79.74-0.46 79.74-2.09L79.74-2.09Q79.74-3.21 80.84-4.35L80.84-4.35Q80.9-4.48 82.24-6.17L82.24-6.17Q86.53-11.58 86.88-12.06L86.88-12.06Q87.39-12.96 87.39-14.02L87.39-14.02 87.39-23.01Q87.39-23.55 87.93-23.73L87.93-23.73Q88.11-23.75 88.22-23.75ZM111.2-14.48L111.2-14.48Q112.65-14.48 113.47-12.94L113.47-12.94Q113.47-12.85 118.08-3.27L118.08-3.27Q118.28-2.79 118.28-2.37L118.28-2.37 118.28-2.31Q118.28-1.16 117.29-0.37L117.29-0.37Q115.71 0.46 115.11 0.46L115.11 0.46 114.79 0.46Q113.93 0.46 113.09-0.37L113.09-0.37Q112.76-0.77 111.86-3.16L111.86-3.16Q108.7-10.74 108.48-11.4L108.48-11.4Q108.41-11.71 108.41-11.91L108.41-11.91 108.41-11.98Q108.41-13.32 109.82-14.13L109.82-14.13Q110.68-14.48 111.2-14.48ZM93.47-6.81L93.47-6.81Q94.66-6.81 95.63-5.82L95.63-5.82Q96.31-4.94 96.66-3.69L96.66-3.69Q96.75-3.38 96.75-3.12L96.75-3.12Q96.75-1.21 94.59-0.26L94.59-0.26Q94.02 0.09 93.25 0.09L93.25 0.09Q91.76 0.09 90.81-1.25L90.81-1.25Q90.04-2.81 90.04-3.69L90.04-3.69Q90.04-5.91 92.75-6.75L92.75-6.75Q93.27-6.81 93.47-6.81ZM137.75-35.11L137.75-35.11 139.72-35.11Q141.64-35.11 142.95-33.13L142.95-33.13Q143.37-32.28 143.37-31.4L143.37-31.4 143.37-30.32 152.49-30.56Q154.07-30.56 155.41-28.98L155.41-28.98Q156.14-28.02 156.14-26.41L156.14-26.41Q156.14-23.58 153.68-22.48L153.68-22.48Q153.17-22.19 150.27-22.19L150.27-22.19Q150.03-22.17 143.26-21.97L143.26-21.97Q143.06-9.4 143.06-8.66L143.06-8.66Q143.04-8.2 143.04-8.04L143.04-8.04Q146.95-8 146.95-7.87L146.95-7.87Q147.81-7.56 148.34-6.75L148.34-6.75Q148.6-6.11 148.6-5.71L148.6-5.71Q148.6-3.8 148.25-3.41L148.25-3.41Q147.85-2.68 146.8-2.33L146.8-2.33Q146.58-2.24 146.34-2.24L146.34-2.24Q145.59-2.24 142.95-2.31L142.95-2.31 142.95-1.96Q142.95 0.53 140.67 1.69L140.67 1.69Q140.23 1.98 137.46 2.2L137.46 2.2 137.4 2.2Q135.44 2.2 134.14 0.33L134.14 0.33Q133.62-0.62 133.62-1.65L133.62-1.65Q133.64-1.98 133.64-2.48L133.64-2.48Q130.45-2.53 130.45-2.64L130.45-2.64Q129.68-2.86 129.16-3.49L129.16-3.49Q128.39-4.28 128.39-5.27L128.39-5.27 128.39-5.6Q128.39-6.99 129.73-7.93L129.73-7.93Q130.5-8.39 131.15-8.39L131.15-8.39Q133.04-8.35 133.7-8.35L133.7-8.35 133.7-8.37Q133.9-20.02 133.9-21.51L133.9-21.51 133.92-21.71Q133.42-21.71 124.21-21.45L124.21-21.45Q122.54-21.45 121.29-22.92L121.29-22.92Q120.5-23.91 120.5-25.38L120.5-25.38 120.5-25.8Q120.5-28.45 123.05-29.55L123.05-29.55Q123.55-29.79 126.06-29.79L126.06-29.79Q126.36-29.84 134.06-30.04L134.06-30.04Q134.06-32.3 134.36-32.78L134.36-32.78Q134.98-34.15 136.34-34.8L136.34-34.8Q137.09-35.11 137.75-35.11ZM127.11-18.87L127.11-18.87Q128.98-18.87 130.41-17.14L130.41-17.14Q131-16.06 131-15.12L131-15.12 131-14.77Q131-13.51 129.77-12.02L129.77-12.02Q129.55-11.67 127.46-8.7L127.46-8.7Q126.25-7.29 124.41-7.29L124.41-7.29Q122.89-7.29 121.35-8.68L121.35-8.68Q120.32-9.89 120.32-11.32L120.32-11.32 120.32-11.4Q120.32-12.77 121.31-13.95L121.31-13.95 124.23-17.64Q125.44-18.87 127.11-18.87ZM149.52-18.87L149.52-18.87 149.83-18.87Q151.72-18.87 153.11-16.9L153.11-16.9Q155.85-13.51 156.12-13.01L156.12-13.01Q156.51-12.08 156.51-11.29L156.51-11.29Q156.51-8.94 153.94-7.49L153.94-7.49Q153.13-7.12 152.36-7.12L152.36-7.12Q149.99-7.12 148.67-9.49L148.67-9.49Q148.51-9.69 146.95-11.98L146.95-11.98Q145.68-13.6 145.68-14.79L145.68-14.79 145.68-14.92Q145.68-16.46 146.76-17.64L146.76-17.64Q148.14-18.87 149.52-18.87Z" transform="translate(-2.990000009536743, 35.310001373291016)"></path></g></g><defs><mask id="TbBhERdm0aK-isbNDe1uu" maskUnits="userSpaceOnUse"><g><g stroke="white" stroke-width="12" stroke-linecap="round" stroke-linejoin="round" paint-order="stroke" fill-opacity="0"><path d="M15.64-35.31L15.64-35.31 15.75-35.31Q18.76-35.31 20.76-32.56L20.76-32.56Q21.49-31.2 21.49-30.81L21.49-30.81Q21.51-30.81 21.51-30.74L21.51-30.74Q21.53-30.74 21.77-30.76L21.77-30.76Q30.37-30.98 31.03-30.98L31.03-30.98Q33.18-30.98 35.05-29.11L35.05-29.11Q36.08-27.95 36.41-26.37L36.41-26.37 36.52-25.62Q36.54-14.3 36.54-6.75L36.54-6.75 36.54-1.6Q36.54 0.37 34.72 1.63L34.72 1.63Q33.84 2.2 32.76 2.2L32.76 2.2 7.05 2.2Q5.08 2.2 3.85 0.37L3.85 0.37Q3.23-0.42 3.23-2.31L3.23-2.31 2.99-26.81Q2.99-27.77 3.89-29L3.89-29Q4.88-29.99 5.6-30.15L5.6-30.15Q5.73-30.37 8.46-30.43L8.46-30.43Q9.16-30.43 9.82-30.45L9.82-30.45Q10.17-32.08 11.12-33.18L11.12-33.18Q13.03-35.31 15.64-35.31ZM12.3-22.48L12.3-22.48 12.44-16.3Q20.39-15.49 20.9-15.4L20.9-15.4Q21.84-15.03 22.32-14.19L22.32-14.19Q22.57-13.69 22.57-13.21L22.57-13.21 22.57-13.01Q22.57-12.3 22.26-11.32L22.26-11.32Q21.45-9.91 20.06-9.91L20.06-9.91Q19.91-9.91 12.57-10.83L12.57-10.83Q12.7-5.45 12.7-4.72L12.7-4.72 25.25-4.94Q25.91-4.94 26.43-5.71L26.43-5.71Q26.59-6.09 26.59-6.22L26.59-6.22 26.37-21.05Q26.37-22.19 25.38-22.59L25.38-22.59Q25.22-22.63 25.03-22.65L25.03-22.65Q13.27-22.52 12.3-22.48ZM55.2-35.31L55.2-35.31 55.31-35.31Q58.32-35.31 60.31-32.56L60.31-32.56Q61.04-31.2 61.04-30.81L61.04-30.81Q61.06-30.81 61.06-30.74L61.06-30.74Q61.08-30.74 61.33-30.76L61.33-30.76Q69.92-30.98 70.58-30.98L70.58-30.98Q72.73-30.98 74.6-29.11L74.6-29.11Q75.63-27.95 75.96-26.37L75.96-26.37 76.07-25.62Q76.09-14.3 76.09-6.75L76.09-6.75 76.09-1.6Q76.09 0.37 74.27 1.63L74.27 1.63Q73.39 2.2 72.31 2.2L72.31 2.2 46.6 2.2Q44.63 2.2 43.4 0.37L43.4 0.37Q42.78-0.42 42.78-2.31L42.78-2.31 42.54-26.81Q42.54-27.77 43.44-29L43.44-29Q44.43-29.99 45.15-30.15L45.15-30.15Q45.29-30.37 48.01-30.43L48.01-30.43Q48.71-30.43 49.37-30.45L49.37-30.45Q49.72-32.08 50.67-33.18L50.67-33.18Q52.58-35.31 55.2-35.31ZM51.86-22.48L51.86-22.48 51.99-16.3Q59.94-15.49 60.45-15.4L60.45-15.4Q61.39-15.03 61.88-14.19L61.88-14.19Q62.12-13.69 62.12-13.21L62.12-13.21 62.12-13.01Q62.12-12.3 61.81-11.32L61.81-11.32Q61-9.91 59.61-9.91L59.61-9.91Q59.46-9.91 52.12-10.83L52.12-10.83Q52.25-5.45 52.25-4.72L52.25-4.72 64.8-4.94Q65.46-4.94 65.98-5.71L65.98-5.71Q66.14-6.09 66.14-6.22L66.14-6.22 65.92-21.05Q65.92-22.19 64.93-22.59L64.93-22.59Q64.78-22.63 64.58-22.65L64.58-22.65Q52.82-22.52 51.86-22.48ZM103.78-34.3L103.78-34.3Q105.45-34.3 106.57-32.56L106.57-32.56Q106.98-31.79 106.98-31.14L106.98-31.14Q106.98-29.53 106.83-21.51L106.83-21.51 115.6-21.51Q117.2-21.51 117.93-19.84L117.93-19.84Q118.04-19.45 118.04-19.01L118.04-19.01 118.04-18.02Q118.04-16.33 116.32-15.64L116.32-15.64Q115.97-15.53 115.42-15.53L115.42-15.53 106.77-15.53Q106.59-5.3 106.59-4.33L106.59-4.33Q106.59-4 107.09-3.63L107.09-3.63Q107.38-3.52 107.51-3.52L107.51-3.52 108.17-3.6 108.24-3.6Q108.98-3.6 109.16-2.64L109.16-2.64Q108.98 0.24 108.79 0.24L108.79 0.24Q108.79 0.57 107.91 1.27L107.91 1.27Q107.45 1.58 106.02 1.74L106.02 1.74Q103.03 2.2 102.61 2.2L102.61 2.2 102.5 2.2Q100.92 2.2 99.76 0.55L99.76 0.55Q99.29-0.29 99.29-0.99L99.29-0.99Q99.34-5.23 99.51-15.6L99.51-15.6Q98.83-15.6 97.91-16.39L97.91-16.39Q97.1-17.29 97.1-18.37L97.1-18.37Q97.1-20.68 99.18-21.42L99.18-21.42 99.58-21.49Q99.73-29.71 99.73-30.87L99.73-30.87Q99.73-32.63 101.27-33.73L101.27-33.73Q102-34.3 103.78-34.3ZM114.5-33.35L114.5-33.35Q115.91-33.35 116.89-32.08L116.89-32.08Q117.88-30.43 117.88-29.77L117.88-29.77 117.88-29.42Q117.88-28.15 116.7-27.18L116.7-27.18Q112.52-24.96 111.86-24.72L111.86-24.72Q111.38-24.63 111.07-24.63L111.07-24.63Q109.58-24.63 108.63-26.02L108.63-26.02Q107.78-27.47 107.78-28.26L107.78-28.26 107.78-28.52Q107.78-29.93 109.18-30.89L109.18-30.89Q112.96-32.92 113.55-33.18L113.55-33.18Q113.84-33.31 114.5-33.35ZM83.06-33.27L83.06-33.27Q93.52-33.18 93.52-33.09L93.52-33.09Q94.64-32.85 95.43-32.1L95.43-32.1Q96.61-30.87 96.61-29.51L96.61-29.51Q96.35-14.37 96.31-12.74L96.31-12.74Q96.13-11.91 95.54-11.36L95.54-11.36Q94.81-10.74 93.96-10.74L93.96-10.74 93.27-10.74Q91.76-10.74 91.03-12.3L91.03-12.3Q90.9-12.72 90.9-13.12L90.9-13.12 90.9-25.64Q90.9-26.94 89.6-27.18L89.6-27.18 85.94-27.18 85.94-13.78Q85.94-11.82 83.98-10.99L83.98-10.99Q83.5-10.83 82.86-10.83L82.86-10.83 82.57-10.83Q80.22-10.83 79.52-13.01L79.52-13.01Q79.45-13.32 79.45-13.67L79.45-13.67 79.45-29.51Q79.45-31.73 81.72-32.98L81.72-32.98Q82.55-33.27 83.06-33.27ZM88.22-23.75L88.22-23.75 88.66-23.75Q89.36-23.75 89.52-23.14L89.52-23.14 89.52-7.01Q89.52-5.82 88.55-4.48L88.55-4.48Q85.96-0.13 85.76 0.13L85.76 0.13Q84.81 1.25 83.47 1.25L83.47 1.25Q82.68 1.25 81.19 0.46L81.19 0.46Q79.74-0.46 79.74-2.09L79.74-2.09Q79.74-3.21 80.84-4.35L80.84-4.35Q80.9-4.48 82.24-6.17L82.24-6.17Q86.53-11.58 86.88-12.06L86.88-12.06Q87.39-12.96 87.39-14.02L87.39-14.02 87.39-23.01Q87.39-23.55 87.93-23.73L87.93-23.73Q88.11-23.75 88.22-23.75ZM111.2-14.48L111.2-14.48Q112.65-14.48 113.47-12.94L113.47-12.94Q113.47-12.85 118.08-3.27L118.08-3.27Q118.28-2.79 118.28-2.37L118.28-2.37 118.28-2.31Q118.28-1.16 117.29-0.37L117.29-0.37Q115.71 0.46 115.11 0.46L115.11 0.46 114.79 0.46Q113.93 0.46 113.09-0.37L113.09-0.37Q112.76-0.77 111.86-3.16L111.86-3.16Q108.7-10.74 108.48-11.4L108.48-11.4Q108.41-11.71 108.41-11.91L108.41-11.91 108.41-11.98Q108.41-13.32 109.82-14.13L109.82-14.13Q110.68-14.48 111.2-14.48ZM93.47-6.81L93.47-6.81Q94.66-6.81 95.63-5.82L95.63-5.82Q96.31-4.94 96.66-3.69L96.66-3.69Q96.75-3.38 96.75-3.12L96.75-3.12Q96.75-1.21 94.59-0.26L94.59-0.26Q94.02 0.09 93.25 0.09L93.25 0.09Q91.76 0.09 90.81-1.25L90.81-1.25Q90.04-2.81 90.04-3.69L90.04-3.69Q90.04-5.91 92.75-6.75L92.75-6.75Q93.27-6.81 93.47-6.81ZM137.75-35.11L137.75-35.11 139.72-35.11Q141.64-35.11 142.95-33.13L142.95-33.13Q143.37-32.28 143.37-31.4L143.37-31.4 143.37-30.32 152.49-30.56Q154.07-30.56 155.41-28.98L155.41-28.98Q156.14-28.02 156.14-26.41L156.14-26.41Q156.14-23.58 153.68-22.48L153.68-22.48Q153.17-22.19 150.27-22.19L150.27-22.19Q150.03-22.17 143.26-21.97L143.26-21.97Q143.06-9.4 143.06-8.66L143.06-8.66Q143.04-8.2 143.04-8.04L143.04-8.04Q146.95-8 146.95-7.87L146.95-7.87Q147.81-7.56 148.34-6.75L148.34-6.75Q148.6-6.11 148.6-5.71L148.6-5.71Q148.6-3.8 148.25-3.41L148.25-3.41Q147.85-2.68 146.8-2.33L146.8-2.33Q146.58-2.24 146.34-2.24L146.34-2.24Q145.59-2.24 142.95-2.31L142.95-2.31 142.95-1.96Q142.95 0.53 140.67 1.69L140.67 1.69Q140.23 1.98 137.46 2.2L137.46 2.2 137.4 2.2Q135.44 2.2 134.14 0.33L134.14 0.33Q133.62-0.62 133.62-1.65L133.62-1.65Q133.64-1.98 133.64-2.48L133.64-2.48Q130.45-2.53 130.45-2.64L130.45-2.64Q129.68-2.86 129.16-3.49L129.16-3.49Q128.39-4.28 128.39-5.27L128.39-5.27 128.39-5.6Q128.39-6.99 129.73-7.93L129.73-7.93Q130.5-8.39 131.15-8.39L131.15-8.39Q133.04-8.35 133.7-8.35L133.7-8.35 133.7-8.37Q133.9-20.02 133.9-21.51L133.9-21.51 133.92-21.71Q133.42-21.71 124.21-21.45L124.21-21.45Q122.54-21.45 121.29-22.92L121.29-22.92Q120.5-23.91 120.5-25.38L120.5-25.38 120.5-25.8Q120.5-28.45 123.05-29.55L123.05-29.55Q123.55-29.79 126.06-29.79L126.06-29.79Q126.36-29.84 134.06-30.04L134.06-30.04Q134.06-32.3 134.36-32.78L134.36-32.78Q134.98-34.15 136.34-34.8L136.34-34.8Q137.09-35.11 137.75-35.11ZM127.11-18.87L127.11-18.87Q128.98-18.87 130.41-17.14L130.41-17.14Q131-16.06 131-15.12L131-15.12 131-14.77Q131-13.51 129.77-12.02L129.77-12.02Q129.55-11.67 127.46-8.7L127.46-8.7Q126.25-7.29 124.41-7.29L124.41-7.29Q122.89-7.29 121.35-8.68L121.35-8.68Q120.32-9.89 120.32-11.32L120.32-11.32 120.32-11.4Q120.32-12.77 121.31-13.95L121.31-13.95 124.23-17.64Q125.44-18.87 127.11-18.87ZM149.52-18.87L149.52-18.87 149.83-18.87Q151.72-18.87 153.11-16.9L153.11-16.9Q155.85-13.51 156.12-13.01L156.12-13.01Q156.51-12.08 156.51-11.29L156.51-11.29Q156.51-8.94 153.94-7.49L153.94-7.49Q153.13-7.12 152.36-7.12L152.36-7.12Q149.99-7.12 148.67-9.49L148.67-9.49Q148.51-9.69 146.95-11.98L146.95-11.98Q145.68-13.6 145.68-14.79L145.68-14.79 145.68-14.92Q145.68-16.46 146.76-17.64L146.76-17.64Q148.14-18.87 149.52-18.87Z" transform="translate(-2.990000009536743, 35.310001373291016)"></path></g><g stroke="black" stroke-width="10" stroke-linecap="round" stroke-linejoin="round" paint-order="stroke" data-gra-ignore-stroke="true"><path d="M15.64-35.31L15.64-35.31 15.75-35.31Q18.76-35.31 20.76-32.56L20.76-32.56Q21.49-31.2 21.49-30.81L21.49-30.81Q21.51-30.81 21.51-30.74L21.51-30.74Q21.53-30.74 21.77-30.76L21.77-30.76Q30.37-30.98 31.03-30.98L31.03-30.98Q33.18-30.98 35.05-29.11L35.05-29.11Q36.08-27.95 36.41-26.37L36.41-26.37 36.52-25.62Q36.54-14.3 36.54-6.75L36.54-6.75 36.54-1.6Q36.54 0.37 34.72 1.63L34.72 1.63Q33.84 2.2 32.76 2.2L32.76 2.2 7.05 2.2Q5.08 2.2 3.85 0.37L3.85 0.37Q3.23-0.42 3.23-2.31L3.23-2.31 2.99-26.81Q2.99-27.77 3.89-29L3.89-29Q4.88-29.99 5.6-30.15L5.6-30.15Q5.73-30.37 8.46-30.43L8.46-30.43Q9.16-30.43 9.82-30.45L9.82-30.45Q10.17-32.08 11.12-33.18L11.12-33.18Q13.03-35.31 15.64-35.31ZM12.3-22.48L12.3-22.48 12.44-16.3Q20.39-15.49 20.9-15.4L20.9-15.4Q21.84-15.03 22.32-14.19L22.32-14.19Q22.57-13.69 22.57-13.21L22.57-13.21 22.57-13.01Q22.57-12.3 22.26-11.32L22.26-11.32Q21.45-9.91 20.06-9.91L20.06-9.91Q19.91-9.91 12.57-10.83L12.57-10.83Q12.7-5.45 12.7-4.72L12.7-4.72 25.25-4.94Q25.91-4.94 26.43-5.71L26.43-5.71Q26.59-6.09 26.59-6.22L26.59-6.22 26.37-21.05Q26.37-22.19 25.38-22.59L25.38-22.59Q25.22-22.63 25.03-22.65L25.03-22.65Q13.27-22.52 12.3-22.48ZM55.2-35.31L55.2-35.31 55.31-35.31Q58.32-35.31 60.31-32.56L60.31-32.56Q61.04-31.2 61.04-30.81L61.04-30.81Q61.06-30.81 61.06-30.74L61.06-30.74Q61.08-30.74 61.33-30.76L61.33-30.76Q69.92-30.98 70.58-30.98L70.58-30.98Q72.73-30.98 74.6-29.11L74.6-29.11Q75.63-27.95 75.96-26.37L75.96-26.37 76.07-25.62Q76.09-14.3 76.09-6.75L76.09-6.75 76.09-1.6Q76.09 0.37 74.27 1.63L74.27 1.63Q73.39 2.2 72.31 2.2L72.31 2.2 46.6 2.2Q44.63 2.2 43.4 0.37L43.4 0.37Q42.78-0.42 42.78-2.31L42.78-2.31 42.54-26.81Q42.54-27.77 43.44-29L43.44-29Q44.43-29.99 45.15-30.15L45.15-30.15Q45.29-30.37 48.01-30.43L48.01-30.43Q48.71-30.43 49.37-30.45L49.37-30.45Q49.72-32.08 50.67-33.18L50.67-33.18Q52.58-35.31 55.2-35.31ZM51.86-22.48L51.86-22.48 51.99-16.3Q59.94-15.49 60.45-15.4L60.45-15.4Q61.39-15.03 61.88-14.19L61.88-14.19Q62.12-13.69 62.12-13.21L62.12-13.21 62.12-13.01Q62.12-12.3 61.81-11.32L61.81-11.32Q61-9.91 59.61-9.91L59.61-9.91Q59.46-9.91 52.12-10.83L52.12-10.83Q52.25-5.45 52.25-4.72L52.25-4.72 64.8-4.94Q65.46-4.94 65.98-5.71L65.98-5.71Q66.14-6.09 66.14-6.22L66.14-6.22 65.92-21.05Q65.92-22.19 64.93-22.59L64.93-22.59Q64.78-22.63 64.58-22.65L64.58-22.65Q52.82-22.52 51.86-22.48ZM103.78-34.3L103.78-34.3Q105.45-34.3 106.57-32.56L106.57-32.56Q106.98-31.79 106.98-31.14L106.98-31.14Q106.98-29.53 106.83-21.51L106.83-21.51 115.6-21.51Q117.2-21.51 117.93-19.84L117.93-19.84Q118.04-19.45 118.04-19.01L118.04-19.01 118.04-18.02Q118.04-16.33 116.32-15.64L116.32-15.64Q115.97-15.53 115.42-15.53L115.42-15.53 106.77-15.53Q106.59-5.3 106.59-4.33L106.59-4.33Q106.59-4 107.09-3.63L107.09-3.63Q107.38-3.52 107.51-3.52L107.51-3.52 108.17-3.6 108.24-3.6Q108.98-3.6 109.16-2.64L109.16-2.64Q108.98 0.24 108.79 0.24L108.79 0.24Q108.79 0.57 107.91 1.27L107.91 1.27Q107.45 1.58 106.02 1.74L106.02 1.74Q103.03 2.2 102.61 2.2L102.61 2.2 102.5 2.2Q100.92 2.2 99.76 0.55L99.76 0.55Q99.29-0.29 99.29-0.99L99.29-0.99Q99.34-5.23 99.51-15.6L99.51-15.6Q98.83-15.6 97.91-16.39L97.91-16.39Q97.1-17.29 97.1-18.37L97.1-18.37Q97.1-20.68 99.18-21.42L99.18-21.42 99.58-21.49Q99.73-29.71 99.73-30.87L99.73-30.87Q99.73-32.63 101.27-33.73L101.27-33.73Q102-34.3 103.78-34.3ZM114.5-33.35L114.5-33.35Q115.91-33.35 116.89-32.08L116.89-32.08Q117.88-30.43 117.88-29.77L117.88-29.77 117.88-29.42Q117.88-28.15 116.7-27.18L116.7-27.18Q112.52-24.96 111.86-24.72L111.86-24.72Q111.38-24.63 111.07-24.63L111.07-24.63Q109.58-24.63 108.63-26.02L108.63-26.02Q107.78-27.47 107.78-28.26L107.78-28.26 107.78-28.52Q107.78-29.93 109.18-30.89L109.18-30.89Q112.96-32.92 113.55-33.18L113.55-33.18Q113.84-33.31 114.5-33.35ZM83.06-33.27L83.06-33.27Q93.52-33.18 93.52-33.09L93.52-33.09Q94.64-32.85 95.43-32.1L95.43-32.1Q96.61-30.87 96.61-29.51L96.61-29.51Q96.35-14.37 96.31-12.74L96.31-12.74Q96.13-11.91 95.54-11.36L95.54-11.36Q94.81-10.74 93.96-10.74L93.96-10.74 93.27-10.74Q91.76-10.74 91.03-12.3L91.03-12.3Q90.9-12.72 90.9-13.12L90.9-13.12 90.9-25.64Q90.9-26.94 89.6-27.18L89.6-27.18 85.94-27.18 85.94-13.78Q85.94-11.82 83.98-10.99L83.98-10.99Q83.5-10.83 82.86-10.83L82.86-10.83 82.57-10.83Q80.22-10.83 79.52-13.01L79.52-13.01Q79.45-13.32 79.45-13.67L79.45-13.67 79.45-29.51Q79.45-31.73 81.72-32.98L81.72-32.98Q82.55-33.27 83.06-33.27ZM88.22-23.75L88.22-23.75 88.66-23.75Q89.36-23.75 89.52-23.14L89.52-23.14 89.52-7.01Q89.52-5.82 88.55-4.48L88.55-4.48Q85.96-0.13 85.76 0.13L85.76 0.13Q84.81 1.25 83.47 1.25L83.47 1.25Q82.68 1.25 81.19 0.46L81.19 0.46Q79.74-0.46 79.74-2.09L79.74-2.09Q79.74-3.21 80.84-4.35L80.84-4.35Q80.9-4.48 82.24-6.17L82.24-6.17Q86.53-11.58 86.88-12.06L86.88-12.06Q87.39-12.96 87.39-14.02L87.39-14.02 87.39-23.01Q87.39-23.55 87.93-23.73L87.93-23.73Q88.11-23.75 88.22-23.75ZM111.2-14.48L111.2-14.48Q112.65-14.48 113.47-12.94L113.47-12.94Q113.47-12.85 118.08-3.27L118.08-3.27Q118.28-2.79 118.28-2.37L118.28-2.37 118.28-2.31Q118.28-1.16 117.29-0.37L117.29-0.37Q115.71 0.46 115.11 0.46L115.11 0.46 114.79 0.46Q113.93 0.46 113.09-0.37L113.09-0.37Q112.76-0.77 111.86-3.16L111.86-3.16Q108.7-10.74 108.48-11.4L108.48-11.4Q108.41-11.71 108.41-11.91L108.41-11.91 108.41-11.98Q108.41-13.32 109.82-14.13L109.82-14.13Q110.68-14.48 111.2-14.48ZM93.47-6.81L93.47-6.81Q94.66-6.81 95.63-5.82L95.63-5.82Q96.31-4.94 96.66-3.69L96.66-3.69Q96.75-3.38 96.75-3.12L96.75-3.12Q96.75-1.21 94.59-0.26L94.59-0.26Q94.02 0.09 93.25 0.09L93.25 0.09Q91.76 0.09 90.81-1.25L90.81-1.25Q90.04-2.81 90.04-3.69L90.04-3.69Q90.04-5.91 92.75-6.75L92.75-6.75Q93.27-6.81 93.47-6.81ZM137.75-35.11L137.75-35.11 139.72-35.11Q141.64-35.11 142.95-33.13L142.95-33.13Q143.37-32.28 143.37-31.4L143.37-31.4 143.37-30.32 152.49-30.56Q154.07-30.56 155.41-28.98L155.41-28.98Q156.14-28.02 156.14-26.41L156.14-26.41Q156.14-23.58 153.68-22.48L153.68-22.48Q153.17-22.19 150.27-22.19L150.27-22.19Q150.03-22.17 143.26-21.97L143.26-21.97Q143.06-9.4 143.06-8.66L143.06-8.66Q143.04-8.2 143.04-8.04L143.04-8.04Q146.95-8 146.95-7.87L146.95-7.87Q147.81-7.56 148.34-6.75L148.34-6.75Q148.6-6.11 148.6-5.71L148.6-5.71Q148.6-3.8 148.25-3.41L148.25-3.41Q147.85-2.68 146.8-2.33L146.8-2.33Q146.58-2.24 146.34-2.24L146.34-2.24Q145.59-2.24 142.95-2.31L142.95-2.31 142.95-1.96Q142.95 0.53 140.67 1.69L140.67 1.69Q140.23 1.98 137.46 2.2L137.46 2.2 137.4 2.2Q135.44 2.2 134.14 0.33L134.14 0.33Q133.62-0.62 133.62-1.65L133.62-1.65Q133.64-1.98 133.64-2.48L133.64-2.48Q130.45-2.53 130.45-2.64L130.45-2.64Q129.68-2.86 129.16-3.49L129.16-3.49Q128.39-4.28 128.39-5.27L128.39-5.27 128.39-5.6Q128.39-6.99 129.73-7.93L129.73-7.93Q130.5-8.39 131.15-8.39L131.15-8.39Q133.04-8.35 133.7-8.35L133.7-8.35 133.7-8.37Q133.9-20.02 133.9-21.51L133.9-21.51 133.92-21.71Q133.42-21.71 124.21-21.45L124.21-21.45Q122.54-21.45 121.29-22.92L121.29-22.92Q120.5-23.91 120.5-25.38L120.5-25.38 120.5-25.8Q120.5-28.45 123.05-29.55L123.05-29.55Q123.55-29.79 126.06-29.79L126.06-29.79Q126.36-29.84 134.06-30.04L134.06-30.04Q134.06-32.3 134.36-32.78L134.36-32.78Q134.98-34.15 136.34-34.8L136.34-34.8Q137.09-35.11 137.75-35.11ZM127.11-18.87L127.11-18.87Q128.98-18.87 130.41-17.14L130.41-17.14Q131-16.06 131-15.12L131-15.12 131-14.77Q131-13.51 129.77-12.02L129.77-12.02Q129.55-11.67 127.46-8.7L127.46-8.7Q126.25-7.29 124.41-7.29L124.41-7.29Q122.89-7.29 121.35-8.68L121.35-8.68Q120.32-9.89 120.32-11.32L120.32-11.32 120.32-11.4Q120.32-12.77 121.31-13.95L121.31-13.95 124.23-17.64Q125.44-18.87 127.11-18.87ZM149.52-18.87L149.52-18.87 149.83-18.87Q151.72-18.87 153.11-16.9L153.11-16.9Q155.85-13.51 156.12-13.01L156.12-13.01Q156.51-12.08 156.51-11.29L156.51-11.29Q156.51-8.94 153.94-7.49L153.94-7.49Q153.13-7.12 152.36-7.12L152.36-7.12Q149.99-7.12 148.67-9.49L148.67-9.49Q148.51-9.69 146.95-11.98L146.95-11.98Q145.68-13.6 145.68-14.79L145.68-14.79 145.68-14.92Q145.68-16.46 146.76-17.64L146.76-17.64Q148.14-18.87 149.52-18.87Z" transform="translate(-2.990000009536743, 35.310001373291016)"></path></g><g fill="white" data-gra-ignore-fill="true"><path d="M15.64-35.31L15.64-35.31 15.75-35.31Q18.76-35.31 20.76-32.56L20.76-32.56Q21.49-31.2 21.49-30.81L21.49-30.81Q21.51-30.81 21.51-30.74L21.51-30.74Q21.53-30.74 21.77-30.76L21.77-30.76Q30.37-30.98 31.03-30.98L31.03-30.98Q33.18-30.98 35.05-29.11L35.05-29.11Q36.08-27.95 36.41-26.37L36.41-26.37 36.52-25.62Q36.54-14.3 36.54-6.75L36.54-6.75 36.54-1.6Q36.54 0.37 34.72 1.63L34.72 1.63Q33.84 2.2 32.76 2.2L32.76 2.2 7.05 2.2Q5.08 2.2 3.85 0.37L3.85 0.37Q3.23-0.42 3.23-2.31L3.23-2.31 2.99-26.81Q2.99-27.77 3.89-29L3.89-29Q4.88-29.99 5.6-30.15L5.6-30.15Q5.73-30.37 8.46-30.43L8.46-30.43Q9.16-30.43 9.82-30.45L9.82-30.45Q10.17-32.08 11.12-33.18L11.12-33.18Q13.03-35.31 15.64-35.31ZM12.3-22.48L12.3-22.48 12.44-16.3Q20.39-15.49 20.9-15.4L20.9-15.4Q21.84-15.03 22.32-14.19L22.32-14.19Q22.57-13.69 22.57-13.21L22.57-13.21 22.57-13.01Q22.57-12.3 22.26-11.32L22.26-11.32Q21.45-9.91 20.06-9.91L20.06-9.91Q19.91-9.91 12.57-10.83L12.57-10.83Q12.7-5.45 12.7-4.72L12.7-4.72 25.25-4.94Q25.91-4.94 26.43-5.71L26.43-5.71Q26.59-6.09 26.59-6.22L26.59-6.22 26.37-21.05Q26.37-22.19 25.38-22.59L25.38-22.59Q25.22-22.63 25.03-22.65L25.03-22.65Q13.27-22.52 12.3-22.48ZM55.2-35.31L55.2-35.31 55.31-35.31Q58.32-35.31 60.31-32.56L60.31-32.56Q61.04-31.2 61.04-30.81L61.04-30.81Q61.06-30.81 61.06-30.74L61.06-30.74Q61.08-30.74 61.33-30.76L61.33-30.76Q69.92-30.98 70.58-30.98L70.58-30.98Q72.73-30.98 74.6-29.11L74.6-29.11Q75.63-27.95 75.96-26.37L75.96-26.37 76.07-25.62Q76.09-14.3 76.09-6.75L76.09-6.75 76.09-1.6Q76.09 0.37 74.27 1.63L74.27 1.63Q73.39 2.2 72.31 2.2L72.31 2.2 46.6 2.2Q44.63 2.2 43.4 0.37L43.4 0.37Q42.78-0.42 42.78-2.31L42.78-2.31 42.54-26.81Q42.54-27.77 43.44-29L43.44-29Q44.43-29.99 45.15-30.15L45.15-30.15Q45.29-30.37 48.01-30.43L48.01-30.43Q48.71-30.43 49.37-30.45L49.37-30.45Q49.72-32.08 50.67-33.18L50.67-33.18Q52.58-35.31 55.2-35.31ZM51.86-22.48L51.86-22.48 51.99-16.3Q59.94-15.49 60.45-15.4L60.45-15.4Q61.39-15.03 61.88-14.19L61.88-14.19Q62.12-13.69 62.12-13.21L62.12-13.21 62.12-13.01Q62.12-12.3 61.81-11.32L61.81-11.32Q61-9.91 59.61-9.91L59.61-9.91Q59.46-9.91 52.12-10.83L52.12-10.83Q52.25-5.45 52.25-4.72L52.25-4.72 64.8-4.94Q65.46-4.94 65.98-5.71L65.98-5.71Q66.14-6.09 66.14-6.22L66.14-6.22 65.92-21.05Q65.92-22.19 64.93-22.59L64.93-22.59Q64.78-22.63 64.58-22.65L64.58-22.65Q52.82-22.52 51.86-22.48ZM103.78-34.3L103.78-34.3Q105.45-34.3 106.57-32.56L106.57-32.56Q106.98-31.79 106.98-31.14L106.98-31.14Q106.98-29.53 106.83-21.51L106.83-21.51 115.6-21.51Q117.2-21.51 117.93-19.84L117.93-19.84Q118.04-19.45 118.04-19.01L118.04-19.01 118.04-18.02Q118.04-16.33 116.32-15.64L116.32-15.64Q115.97-15.53 115.42-15.53L115.42-15.53 106.77-15.53Q106.59-5.3 106.59-4.33L106.59-4.33Q106.59-4 107.09-3.63L107.09-3.63Q107.38-3.52 107.51-3.52L107.51-3.52 108.17-3.6 108.24-3.6Q108.98-3.6 109.16-2.64L109.16-2.64Q108.98 0.24 108.79 0.24L108.79 0.24Q108.79 0.57 107.91 1.27L107.91 1.27Q107.45 1.58 106.02 1.74L106.02 1.74Q103.03 2.2 102.61 2.2L102.61 2.2 102.5 2.2Q100.92 2.2 99.76 0.55L99.76 0.55Q99.29-0.29 99.29-0.99L99.29-0.99Q99.34-5.23 99.51-15.6L99.51-15.6Q98.83-15.6 97.91-16.39L97.91-16.39Q97.1-17.29 97.1-18.37L97.1-18.37Q97.1-20.68 99.18-21.42L99.18-21.42 99.58-21.49Q99.73-29.71 99.73-30.87L99.73-30.87Q99.73-32.63 101.27-33.73L101.27-33.73Q102-34.3 103.78-34.3ZM114.5-33.35L114.5-33.35Q115.91-33.35 116.89-32.08L116.89-32.08Q117.88-30.43 117.88-29.77L117.88-29.77 117.88-29.42Q117.88-28.15 116.7-27.18L116.7-27.18Q112.52-24.96 111.86-24.72L111.86-24.72Q111.38-24.63 111.07-24.63L111.07-24.63Q109.58-24.63 108.63-26.02L108.63-26.02Q107.78-27.47 107.78-28.26L107.78-28.26 107.78-28.52Q107.78-29.93 109.18-30.89L109.18-30.89Q112.96-32.92 113.55-33.18L113.55-33.18Q113.84-33.31 114.5-33.35ZM83.06-33.27L83.06-33.27Q93.52-33.18 93.52-33.09L93.52-33.09Q94.64-32.85 95.43-32.1L95.43-32.1Q96.61-30.87 96.61-29.51L96.61-29.51Q96.35-14.37 96.31-12.74L96.31-12.74Q96.13-11.91 95.54-11.36L95.54-11.36Q94.81-10.74 93.96-10.74L93.96-10.74 93.27-10.74Q91.76-10.74 91.03-12.3L91.03-12.3Q90.9-12.72 90.9-13.12L90.9-13.12 90.9-25.64Q90.9-26.94 89.6-27.18L89.6-27.18 85.94-27.18 85.94-13.78Q85.94-11.82 83.98-10.99L83.98-10.99Q83.5-10.83 82.86-10.83L82.86-10.83 82.57-10.83Q80.22-10.83 79.52-13.01L79.52-13.01Q79.45-13.32 79.45-13.67L79.45-13.67 79.45-29.51Q79.45-31.73 81.72-32.98L81.72-32.98Q82.55-33.27 83.06-33.27ZM88.22-23.75L88.22-23.75 88.66-23.75Q89.36-23.75 89.52-23.14L89.52-23.14 89.52-7.01Q89.52-5.82 88.55-4.48L88.55-4.48Q85.96-0.13 85.76 0.13L85.76 0.13Q84.81 1.25 83.47 1.25L83.47 1.25Q82.68 1.25 81.19 0.46L81.19 0.46Q79.74-0.46 79.74-2.09L79.74-2.09Q79.74-3.21 80.84-4.35L80.84-4.35Q80.9-4.48 82.24-6.17L82.24-6.17Q86.53-11.58 86.88-12.06L86.88-12.06Q87.39-12.96 87.39-14.02L87.39-14.02 87.39-23.01Q87.39-23.55 87.93-23.73L87.93-23.73Q88.11-23.75 88.22-23.75ZM111.2-14.48L111.2-14.48Q112.65-14.48 113.47-12.94L113.47-12.94Q113.47-12.85 118.08-3.27L118.08-3.27Q118.28-2.79 118.28-2.37L118.28-2.37 118.28-2.31Q118.28-1.16 117.29-0.37L117.29-0.37Q115.71 0.46 115.11 0.46L115.11 0.46 114.79 0.46Q113.93 0.46 113.09-0.37L113.09-0.37Q112.76-0.77 111.86-3.16L111.86-3.16Q108.7-10.74 108.48-11.4L108.48-11.4Q108.41-11.71 108.41-11.91L108.41-11.91 108.41-11.98Q108.41-13.32 109.82-14.13L109.82-14.13Q110.68-14.48 111.2-14.48ZM93.47-6.81L93.47-6.81Q94.66-6.81 95.63-5.82L95.63-5.82Q96.31-4.94 96.66-3.69L96.66-3.69Q96.75-3.38 96.75-3.12L96.75-3.12Q96.75-1.21 94.59-0.26L94.59-0.26Q94.02 0.09 93.25 0.09L93.25 0.09Q91.76 0.09 90.81-1.25L90.81-1.25Q90.04-2.81 90.04-3.69L90.04-3.69Q90.04-5.91 92.75-6.75L92.75-6.75Q93.27-6.81 93.47-6.81ZM137.75-35.11L137.75-35.11 139.72-35.11Q141.64-35.11 142.95-33.13L142.95-33.13Q143.37-32.28 143.37-31.4L143.37-31.4 143.37-30.32 152.49-30.56Q154.07-30.56 155.41-28.98L155.41-28.98Q156.14-28.02 156.14-26.41L156.14-26.41Q156.14-23.58 153.68-22.48L153.68-22.48Q153.17-22.19 150.27-22.19L150.27-22.19Q150.03-22.17 143.26-21.97L143.26-21.97Q143.06-9.4 143.06-8.66L143.06-8.66Q143.04-8.2 143.04-8.04L143.04-8.04Q146.95-8 146.95-7.87L146.95-7.87Q147.81-7.56 148.34-6.75L148.34-6.75Q148.6-6.11 148.6-5.71L148.6-5.71Q148.6-3.8 148.25-3.41L148.25-3.41Q147.85-2.68 146.8-2.33L146.8-2.33Q146.58-2.24 146.34-2.24L146.34-2.24Q145.59-2.24 142.95-2.31L142.95-2.31 142.95-1.96Q142.95 0.53 140.67 1.69L140.67 1.69Q140.23 1.98 137.46 2.2L137.46 2.2 137.4 2.2Q135.44 2.2 134.14 0.33L134.14 0.33Q133.62-0.62 133.62-1.65L133.62-1.65Q133.64-1.98 133.64-2.48L133.64-2.48Q130.45-2.53 130.45-2.64L130.45-2.64Q129.68-2.86 129.16-3.49L129.16-3.49Q128.39-4.28 128.39-5.27L128.39-5.27 128.39-5.6Q128.39-6.99 129.73-7.93L129.73-7.93Q130.5-8.39 131.15-8.39L131.15-8.39Q133.04-8.35 133.7-8.35L133.7-8.35 133.7-8.37Q133.9-20.02 133.9-21.51L133.9-21.51 133.92-21.71Q133.42-21.71 124.21-21.45L124.21-21.45Q122.54-21.45 121.29-22.92L121.29-22.92Q120.5-23.91 120.5-25.38L120.5-25.38 120.5-25.8Q120.5-28.45 123.05-29.55L123.05-29.55Q123.55-29.79 126.06-29.79L126.06-29.79Q126.36-29.84 134.06-30.04L134.06-30.04Q134.06-32.3 134.36-32.78L134.36-32.78Q134.98-34.15 136.34-34.8L136.34-34.8Q137.09-35.11 137.75-35.11ZM127.11-18.87L127.11-18.87Q128.98-18.87 130.41-17.14L130.41-17.14Q131-16.06 131-15.12L131-15.12 131-14.77Q131-13.51 129.77-12.02L129.77-12.02Q129.55-11.67 127.46-8.7L127.46-8.7Q126.25-7.29 124.41-7.29L124.41-7.29Q122.89-7.29 121.35-8.68L121.35-8.68Q120.32-9.89 120.32-11.32L120.32-11.32 120.32-11.4Q120.32-12.77 121.31-13.95L121.31-13.95 124.23-17.64Q125.44-18.87 127.11-18.87ZM149.52-18.87L149.52-18.87 149.83-18.87Q151.72-18.87 153.11-16.9L153.11-16.9Q155.85-13.51 156.12-13.01L156.12-13.01Q156.51-12.08 156.51-11.29L156.51-11.29Q156.51-8.94 153.94-7.49L153.94-7.49Q153.13-7.12 152.36-7.12L152.36-7.12Q149.99-7.12 148.67-9.49L148.67-9.49Q148.51-9.69 146.95-11.98L146.95-11.98Q145.68-13.6 145.68-14.79L145.68-14.79 145.68-14.92Q145.68-16.46 146.76-17.64L146.76-17.64Q148.14-18.87 149.52-18.87Z" transform="translate(-2.990000009536743, 35.310001373291016)"></path></g></g></mask></defs></g></g></g> <!----></g><defs v-gra="od"></defs></svg>